<mxfile host="app.diagrams.net" modified="2023-12-23T09:25:17.917Z" agent="Mozilla/5.0 (Windows NT 10.0; Win64; x64) AppleWebKit/537.36 (KHTML, like Gecko) Chrome/120.0.0.0 Safari/537.36 Edg/120.0.0.0" etag="29ttgJUwoPJVUu98RPjF" version="22.1.11" type="github" pages="3">
  <diagram name="sudungphanmem" id="OkoWY4tEVxeBiEuCzgqk">
    <mxGraphModel dx="995" dy="612" grid="1" gridSize="10" guides="1" tooltips="1" connect="1" arrows="1" fold="1" page="1" pageScale="1" pageWidth="827" pageHeight="1169" math="0" shadow="0">
      <root>
        <mxCell id="0" />
        <mxCell id="1" parent="0" />
        <mxCell id="BOMXDZir3Gy81gxvzsrk-2" value="Người dùng" style="rounded=0;whiteSpace=wrap;html=1;fillColor=#dae8fc;strokeColor=#000000;strokeWidth=2;fontSize=16;fontStyle=1" vertex="1" parent="1">
          <mxGeometry x="40" y="40" width="360" height="40" as="geometry" />
        </mxCell>
        <mxCell id="BOMXDZir3Gy81gxvzsrk-3" value="Hệ thống" style="rounded=0;whiteSpace=wrap;html=1;fillColor=#dae8fc;strokeColor=#000000;strokeWidth=2;fontSize=16;fontStyle=1" vertex="1" parent="1">
          <mxGeometry x="400" y="40" width="360" height="40" as="geometry" />
        </mxCell>
        <mxCell id="BOMXDZir3Gy81gxvzsrk-4" value="" style="rounded=0;whiteSpace=wrap;html=1;strokeWidth=2;" vertex="1" parent="1">
          <mxGeometry x="40" y="80" width="360" height="840" as="geometry" />
        </mxCell>
        <mxCell id="BOMXDZir3Gy81gxvzsrk-5" value="" style="rounded=0;whiteSpace=wrap;html=1;strokeWidth=2;" vertex="1" parent="1">
          <mxGeometry x="400" y="80" width="360" height="840" as="geometry" />
        </mxCell>
        <mxCell id="BOMXDZir3Gy81gxvzsrk-6" value="" style="ellipse;whiteSpace=wrap;html=1;aspect=fixed;fillColor=#000000;" vertex="1" parent="1">
          <mxGeometry x="200" y="110" width="40" height="40" as="geometry" />
        </mxCell>
        <mxCell id="BOMXDZir3Gy81gxvzsrk-8" value="Đăng nhập" style="rounded=0;whiteSpace=wrap;html=1;" vertex="1" parent="1">
          <mxGeometry x="160" y="190" width="120" height="60" as="geometry" />
        </mxCell>
        <mxCell id="BOMXDZir3Gy81gxvzsrk-9" value="Nhận thông tin" style="rounded=0;whiteSpace=wrap;html=1;" vertex="1" parent="1">
          <mxGeometry x="520" y="190" width="120" height="60" as="geometry" />
        </mxCell>
        <mxCell id="BOMXDZir3Gy81gxvzsrk-10" value="Xác nhận thông tin" style="rounded=0;whiteSpace=wrap;html=1;" vertex="1" parent="1">
          <mxGeometry x="520" y="290" width="120" height="60" as="geometry" />
        </mxCell>
        <mxCell id="BOMXDZir3Gy81gxvzsrk-11" value="Chính xác" style="rhombus;whiteSpace=wrap;html=1;" vertex="1" parent="1">
          <mxGeometry x="520" y="390" width="120" height="80" as="geometry" />
        </mxCell>
        <mxCell id="BOMXDZir3Gy81gxvzsrk-12" value="Thông báo" style="shape=parallelogram;perimeter=parallelogramPerimeter;whiteSpace=wrap;html=1;fixedSize=1;" vertex="1" parent="1">
          <mxGeometry x="160" y="400" width="120" height="60" as="geometry" />
        </mxCell>
        <mxCell id="BOMXDZir3Gy81gxvzsrk-13" value="Đăng nhập &lt;br&gt;thành công" style="rounded=0;whiteSpace=wrap;html=1;" vertex="1" parent="1">
          <mxGeometry x="520" y="520" width="120" height="60" as="geometry" />
        </mxCell>
        <mxCell id="BOMXDZir3Gy81gxvzsrk-14" value="Hiển thị các chức năng tương ứng" style="rounded=0;whiteSpace=wrap;html=1;" vertex="1" parent="1">
          <mxGeometry x="520" y="630" width="120" height="60" as="geometry" />
        </mxCell>
        <mxCell id="BOMXDZir3Gy81gxvzsrk-15" value="Sử dụng chức năng tương ứng mà hệ thống cung cấp" style="rounded=0;whiteSpace=wrap;html=1;" vertex="1" parent="1">
          <mxGeometry x="160" y="630" width="120" height="60" as="geometry" />
        </mxCell>
        <mxCell id="BOMXDZir3Gy81gxvzsrk-16" value="Đăng xuất" style="rounded=0;whiteSpace=wrap;html=1;" vertex="1" parent="1">
          <mxGeometry x="160" y="740" width="120" height="60" as="geometry" />
        </mxCell>
        <mxCell id="BOMXDZir3Gy81gxvzsrk-21" value="" style="endArrow=classic;html=1;exitX=0.5;exitY=1;exitDx=0;exitDy=0;" edge="1" parent="1" source="BOMXDZir3Gy81gxvzsrk-6" target="BOMXDZir3Gy81gxvzsrk-8">
          <mxGeometry width="50" height="50" relative="1" as="geometry">
            <mxPoint x="400" y="330" as="sourcePoint" />
            <mxPoint x="450" y="280" as="targetPoint" />
          </mxGeometry>
        </mxCell>
        <mxCell id="BOMXDZir3Gy81gxvzsrk-22" value="" style="endArrow=classic;startArrow=classic;html=1;exitX=1;exitY=0.5;exitDx=0;exitDy=0;entryX=0;entryY=0.5;entryDx=0;entryDy=0;" edge="1" parent="1" source="BOMXDZir3Gy81gxvzsrk-8" target="BOMXDZir3Gy81gxvzsrk-9">
          <mxGeometry width="50" height="50" relative="1" as="geometry">
            <mxPoint x="400" y="330" as="sourcePoint" />
            <mxPoint x="450" y="280" as="targetPoint" />
          </mxGeometry>
        </mxCell>
        <mxCell id="BOMXDZir3Gy81gxvzsrk-23" value="" style="endArrow=classic;html=1;exitX=0.5;exitY=1;exitDx=0;exitDy=0;entryX=0.5;entryY=0;entryDx=0;entryDy=0;" edge="1" parent="1" source="BOMXDZir3Gy81gxvzsrk-9" target="BOMXDZir3Gy81gxvzsrk-10">
          <mxGeometry width="50" height="50" relative="1" as="geometry">
            <mxPoint x="400" y="330" as="sourcePoint" />
            <mxPoint x="450" y="280" as="targetPoint" />
          </mxGeometry>
        </mxCell>
        <mxCell id="BOMXDZir3Gy81gxvzsrk-24" value="" style="endArrow=classic;html=1;exitX=0.5;exitY=1;exitDx=0;exitDy=0;entryX=0.5;entryY=0;entryDx=0;entryDy=0;" edge="1" parent="1" source="BOMXDZir3Gy81gxvzsrk-10" target="BOMXDZir3Gy81gxvzsrk-11">
          <mxGeometry width="50" height="50" relative="1" as="geometry">
            <mxPoint x="400" y="520" as="sourcePoint" />
            <mxPoint x="450" y="470" as="targetPoint" />
          </mxGeometry>
        </mxCell>
        <mxCell id="BOMXDZir3Gy81gxvzsrk-25" value="" style="endArrow=classic;html=1;exitX=0.5;exitY=1;exitDx=0;exitDy=0;entryX=0.5;entryY=0;entryDx=0;entryDy=0;" edge="1" parent="1" source="BOMXDZir3Gy81gxvzsrk-11" target="BOMXDZir3Gy81gxvzsrk-13">
          <mxGeometry width="50" height="50" relative="1" as="geometry">
            <mxPoint x="400" y="520" as="sourcePoint" />
            <mxPoint x="450" y="470" as="targetPoint" />
          </mxGeometry>
        </mxCell>
        <mxCell id="BOMXDZir3Gy81gxvzsrk-30" value="Đúng" style="edgeLabel;html=1;align=center;verticalAlign=middle;resizable=0;points=[];" vertex="1" connectable="0" parent="BOMXDZir3Gy81gxvzsrk-25">
          <mxGeometry x="-0.3867" y="-1" relative="1" as="geometry">
            <mxPoint x="21" as="offset" />
          </mxGeometry>
        </mxCell>
        <mxCell id="BOMXDZir3Gy81gxvzsrk-26" value="" style="endArrow=classic;html=1;exitX=0.5;exitY=1;exitDx=0;exitDy=0;entryX=0.5;entryY=0;entryDx=0;entryDy=0;" edge="1" parent="1" source="BOMXDZir3Gy81gxvzsrk-13" target="BOMXDZir3Gy81gxvzsrk-14">
          <mxGeometry width="50" height="50" relative="1" as="geometry">
            <mxPoint x="400" y="910" as="sourcePoint" />
            <mxPoint x="450" y="860" as="targetPoint" />
          </mxGeometry>
        </mxCell>
        <mxCell id="BOMXDZir3Gy81gxvzsrk-27" value="" style="endArrow=classic;html=1;exitX=0;exitY=0.5;exitDx=0;exitDy=0;entryX=1;entryY=0.5;entryDx=0;entryDy=0;" edge="1" parent="1" source="BOMXDZir3Gy81gxvzsrk-14" target="BOMXDZir3Gy81gxvzsrk-15">
          <mxGeometry width="50" height="50" relative="1" as="geometry">
            <mxPoint x="400" y="910" as="sourcePoint" />
            <mxPoint x="450" y="860" as="targetPoint" />
          </mxGeometry>
        </mxCell>
        <mxCell id="BOMXDZir3Gy81gxvzsrk-28" value="" style="endArrow=classic;html=1;exitX=0.5;exitY=1;exitDx=0;exitDy=0;entryX=0.5;entryY=0;entryDx=0;entryDy=0;" edge="1" parent="1" source="BOMXDZir3Gy81gxvzsrk-15" target="BOMXDZir3Gy81gxvzsrk-16">
          <mxGeometry width="50" height="50" relative="1" as="geometry">
            <mxPoint x="400" y="910" as="sourcePoint" />
            <mxPoint x="450" y="860" as="targetPoint" />
          </mxGeometry>
        </mxCell>
        <mxCell id="BOMXDZir3Gy81gxvzsrk-29" value="" style="endArrow=classic;html=1;exitX=0;exitY=0.5;exitDx=0;exitDy=0;entryX=1;entryY=0.5;entryDx=0;entryDy=0;" edge="1" parent="1" source="BOMXDZir3Gy81gxvzsrk-11" target="BOMXDZir3Gy81gxvzsrk-12">
          <mxGeometry width="50" height="50" relative="1" as="geometry">
            <mxPoint x="400" y="520" as="sourcePoint" />
            <mxPoint x="450" y="470" as="targetPoint" />
          </mxGeometry>
        </mxCell>
        <mxCell id="BOMXDZir3Gy81gxvzsrk-31" value="Sai" style="edgeLabel;html=1;align=center;verticalAlign=middle;resizable=0;points=[];" vertex="1" connectable="0" parent="BOMXDZir3Gy81gxvzsrk-29">
          <mxGeometry x="-0.5351" relative="1" as="geometry">
            <mxPoint x="29" y="-13" as="offset" />
          </mxGeometry>
        </mxCell>
        <mxCell id="BOMXDZir3Gy81gxvzsrk-32" value="" style="ellipse;whiteSpace=wrap;html=1;aspect=fixed;fillColor=#000000;" vertex="1" parent="1">
          <mxGeometry x="200" y="840" width="40" height="40" as="geometry" />
        </mxCell>
        <mxCell id="BOMXDZir3Gy81gxvzsrk-33" value="" style="endArrow=classic;html=1;exitX=0.5;exitY=1;exitDx=0;exitDy=0;entryX=0.5;entryY=0;entryDx=0;entryDy=0;" edge="1" parent="1" source="BOMXDZir3Gy81gxvzsrk-16" target="BOMXDZir3Gy81gxvzsrk-32">
          <mxGeometry width="50" height="50" relative="1" as="geometry">
            <mxPoint x="400" y="990" as="sourcePoint" />
            <mxPoint x="450" y="940" as="targetPoint" />
          </mxGeometry>
        </mxCell>
      </root>
    </mxGraphModel>
  </diagram>
  <diagram name="dsachnhansu" id="3wivH7uHUJxf8theF4UB">
    <mxGraphModel dx="746" dy="459" grid="1" gridSize="10" guides="1" tooltips="1" connect="1" arrows="1" fold="1" page="1" pageScale="1" pageWidth="827" pageHeight="1169" math="0" shadow="0">
      <root>
        <mxCell id="Z3lcmmklt4w4jPVKy3j5-0" />
        <mxCell id="Z3lcmmklt4w4jPVKy3j5-1" parent="Z3lcmmklt4w4jPVKy3j5-0" />
        <mxCell id="Z3lcmmklt4w4jPVKy3j5-2" value="Người dùng" style="rounded=0;whiteSpace=wrap;html=1;fillColor=#dae8fc;strokeColor=#000000;strokeWidth=2;fontSize=16;fontStyle=1;movable=0;resizable=0;rotatable=0;deletable=0;editable=0;locked=1;connectable=0;" vertex="1" parent="Z3lcmmklt4w4jPVKy3j5-1">
          <mxGeometry x="40" y="40" width="360" height="40" as="geometry" />
        </mxCell>
        <mxCell id="Z3lcmmklt4w4jPVKy3j5-3" value="Hệ thống" style="rounded=0;whiteSpace=wrap;html=1;fillColor=#dae8fc;strokeColor=#000000;strokeWidth=2;fontSize=16;fontStyle=1;movable=0;resizable=0;rotatable=0;deletable=0;editable=0;locked=1;connectable=0;" vertex="1" parent="Z3lcmmklt4w4jPVKy3j5-1">
          <mxGeometry x="400" y="40" width="360" height="40" as="geometry" />
        </mxCell>
        <mxCell id="Z3lcmmklt4w4jPVKy3j5-4" value="" style="rounded=0;whiteSpace=wrap;html=1;strokeWidth=2;movable=0;resizable=0;rotatable=0;deletable=0;editable=0;locked=1;connectable=0;" vertex="1" parent="Z3lcmmklt4w4jPVKy3j5-1">
          <mxGeometry x="40" y="80" width="360" height="1200" as="geometry" />
        </mxCell>
        <mxCell id="Z3lcmmklt4w4jPVKy3j5-5" value="" style="rounded=0;whiteSpace=wrap;html=1;strokeWidth=2;movable=0;resizable=0;rotatable=0;deletable=0;editable=0;locked=1;connectable=0;" vertex="1" parent="Z3lcmmklt4w4jPVKy3j5-1">
          <mxGeometry x="400" y="80" width="360" height="1200" as="geometry" />
        </mxCell>
        <mxCell id="Z3lcmmklt4w4jPVKy3j5-6" value="" style="ellipse;whiteSpace=wrap;html=1;aspect=fixed;fillColor=#000000;" vertex="1" parent="Z3lcmmklt4w4jPVKy3j5-1">
          <mxGeometry x="80" y="110" width="30" height="30" as="geometry" />
        </mxCell>
        <mxCell id="AMbDvyvDyfNrBXxUsb4E-5" value="" style="edgeStyle=orthogonalEdgeStyle;orthogonalLoop=1;jettySize=auto;html=1;" edge="1" parent="Z3lcmmklt4w4jPVKy3j5-1" source="Z3lcmmklt4w4jPVKy3j5-7" target="AMbDvyvDyfNrBXxUsb4E-4">
          <mxGeometry relative="1" as="geometry" />
        </mxCell>
        <mxCell id="Z3lcmmklt4w4jPVKy3j5-7" value="Đăng nhập" style="rounded=0;whiteSpace=wrap;html=1;" vertex="1" parent="Z3lcmmklt4w4jPVKy3j5-1">
          <mxGeometry x="177.5" y="97.5" width="85" height="55" as="geometry" />
        </mxCell>
        <mxCell id="AMbDvyvDyfNrBXxUsb4E-0" value="" style="endArrow=classic;html=1;exitX=1;exitY=0.5;exitDx=0;exitDy=0;entryX=0;entryY=0.5;entryDx=0;entryDy=0;" edge="1" parent="Z3lcmmklt4w4jPVKy3j5-1" source="Z3lcmmklt4w4jPVKy3j5-6" target="Z3lcmmklt4w4jPVKy3j5-7">
          <mxGeometry width="50" height="50" relative="1" as="geometry">
            <mxPoint x="360" y="190" as="sourcePoint" />
            <mxPoint x="410" y="140" as="targetPoint" />
          </mxGeometry>
        </mxCell>
        <mxCell id="AMbDvyvDyfNrBXxUsb4E-7" style="edgeStyle=orthogonalEdgeStyle;orthogonalLoop=1;jettySize=auto;html=1;entryX=0;entryY=0.5;entryDx=0;entryDy=0;" edge="1" parent="Z3lcmmklt4w4jPVKy3j5-1" source="AMbDvyvDyfNrBXxUsb4E-4" target="AMbDvyvDyfNrBXxUsb4E-6">
          <mxGeometry relative="1" as="geometry" />
        </mxCell>
        <mxCell id="AMbDvyvDyfNrBXxUsb4E-4" value="Xem danh sách nhân sự" style="rounded=0;whiteSpace=wrap;html=1;" vertex="1" parent="Z3lcmmklt4w4jPVKy3j5-1">
          <mxGeometry x="177.5" y="190" width="85" height="55" as="geometry" />
        </mxCell>
        <mxCell id="AMbDvyvDyfNrBXxUsb4E-6" value="Hiển thị danh sách nhân sự" style="rounded=0;whiteSpace=wrap;html=1;" vertex="1" parent="Z3lcmmklt4w4jPVKy3j5-1">
          <mxGeometry x="537.5" y="190" width="85" height="55" as="geometry" />
        </mxCell>
        <mxCell id="AMbDvyvDyfNrBXxUsb4E-19" style="edgeStyle=orthogonalEdgeStyle;orthogonalLoop=1;jettySize=auto;html=1;exitX=0;exitY=0.5;exitDx=0;exitDy=0;entryX=0.5;entryY=0;entryDx=0;entryDy=0;" edge="1" parent="Z3lcmmklt4w4jPVKy3j5-1" source="AMbDvyvDyfNrBXxUsb4E-8" target="AMbDvyvDyfNrBXxUsb4E-18">
          <mxGeometry relative="1" as="geometry" />
        </mxCell>
        <mxCell id="AMbDvyvDyfNrBXxUsb4E-20" value="Không" style="edgeLabel;html=1;align=center;verticalAlign=middle;resizable=0;points=[];" vertex="1" connectable="0" parent="AMbDvyvDyfNrBXxUsb4E-19">
          <mxGeometry x="-0.2444" y="-1" relative="1" as="geometry">
            <mxPoint as="offset" />
          </mxGeometry>
        </mxCell>
        <mxCell id="AMbDvyvDyfNrBXxUsb4E-66" style="edgeStyle=orthogonalEdgeStyle;orthogonalLoop=1;jettySize=auto;html=1;exitX=0.5;exitY=1;exitDx=0;exitDy=0;entryX=0.5;entryY=0;entryDx=0;entryDy=0;" edge="1" parent="Z3lcmmklt4w4jPVKy3j5-1" source="AMbDvyvDyfNrBXxUsb4E-8" target="AMbDvyvDyfNrBXxUsb4E-62">
          <mxGeometry relative="1" as="geometry">
            <Array as="points">
              <mxPoint x="330" y="300" />
              <mxPoint x="730" y="300" />
            </Array>
          </mxGeometry>
        </mxCell>
        <mxCell id="AMbDvyvDyfNrBXxUsb4E-67" value="Có" style="edgeLabel;html=1;align=center;verticalAlign=middle;resizable=0;points=[];" vertex="1" connectable="0" parent="AMbDvyvDyfNrBXxUsb4E-66">
          <mxGeometry x="-0.4085" y="-1" relative="1" as="geometry">
            <mxPoint x="-9" y="-2" as="offset" />
          </mxGeometry>
        </mxCell>
        <mxCell id="AMbDvyvDyfNrBXxUsb4E-8" value="" style="rhombus;whiteSpace=wrap;html=1;" vertex="1" parent="Z3lcmmklt4w4jPVKy3j5-1">
          <mxGeometry x="320" y="260" width="20" height="20" as="geometry" />
        </mxCell>
        <mxCell id="AMbDvyvDyfNrBXxUsb4E-13" value="" style="endArrow=classic;html=1;entryX=1;entryY=0.5;entryDx=0;entryDy=0;exitX=0;exitY=1;exitDx=0;exitDy=0;" edge="1" parent="Z3lcmmklt4w4jPVKy3j5-1" source="AMbDvyvDyfNrBXxUsb4E-6" target="AMbDvyvDyfNrBXxUsb4E-8">
          <mxGeometry width="50" height="50" relative="1" as="geometry">
            <mxPoint x="360" y="270" as="sourcePoint" />
            <mxPoint x="410" y="220" as="targetPoint" />
          </mxGeometry>
        </mxCell>
        <mxCell id="AMbDvyvDyfNrBXxUsb4E-14" value="Đăng xuất" style="edgeLabel;html=1;align=center;verticalAlign=middle;resizable=0;points=[];" vertex="1" connectable="0" parent="AMbDvyvDyfNrBXxUsb4E-13">
          <mxGeometry x="-0.114" relative="1" as="geometry">
            <mxPoint x="22" y="-5" as="offset" />
          </mxGeometry>
        </mxCell>
        <mxCell id="AMbDvyvDyfNrBXxUsb4E-15" value="" style="ellipse;whiteSpace=wrap;html=1;aspect=fixed;fillColor=#000000;" vertex="1" parent="Z3lcmmklt4w4jPVKy3j5-1">
          <mxGeometry x="80" y="1210" width="30" height="30" as="geometry" />
        </mxCell>
        <mxCell id="AMbDvyvDyfNrBXxUsb4E-17" style="edgeStyle=orthogonalEdgeStyle;orthogonalLoop=1;jettySize=auto;html=1;exitX=0;exitY=0.5;exitDx=0;exitDy=0;entryX=1;entryY=0.5;entryDx=0;entryDy=0;" edge="1" parent="Z3lcmmklt4w4jPVKy3j5-1" source="AMbDvyvDyfNrBXxUsb4E-16" target="AMbDvyvDyfNrBXxUsb4E-15">
          <mxGeometry relative="1" as="geometry" />
        </mxCell>
        <mxCell id="AMbDvyvDyfNrBXxUsb4E-16" value="Đăng xuất" style="rounded=0;whiteSpace=wrap;html=1;" vertex="1" parent="Z3lcmmklt4w4jPVKy3j5-1">
          <mxGeometry x="177.5" y="1197.5" width="85" height="55" as="geometry" />
        </mxCell>
        <mxCell id="AMbDvyvDyfNrBXxUsb4E-24" style="edgeStyle=orthogonalEdgeStyle;orthogonalLoop=1;jettySize=auto;html=1;exitX=0;exitY=0.5;exitDx=0;exitDy=0;entryX=0.5;entryY=0;entryDx=0;entryDy=0;" edge="1" parent="Z3lcmmklt4w4jPVKy3j5-1" source="AMbDvyvDyfNrBXxUsb4E-18" target="AMbDvyvDyfNrBXxUsb4E-21">
          <mxGeometry relative="1" as="geometry" />
        </mxCell>
        <mxCell id="AMbDvyvDyfNrBXxUsb4E-25" value="" style="edgeStyle=orthogonalEdgeStyle;orthogonalLoop=1;jettySize=auto;html=1;" edge="1" parent="Z3lcmmklt4w4jPVKy3j5-1" source="AMbDvyvDyfNrBXxUsb4E-18" target="AMbDvyvDyfNrBXxUsb4E-22">
          <mxGeometry relative="1" as="geometry" />
        </mxCell>
        <mxCell id="AMbDvyvDyfNrBXxUsb4E-26" style="edgeStyle=orthogonalEdgeStyle;orthogonalLoop=1;jettySize=auto;html=1;entryX=0.5;entryY=0;entryDx=0;entryDy=0;" edge="1" parent="Z3lcmmklt4w4jPVKy3j5-1" source="AMbDvyvDyfNrBXxUsb4E-18" target="AMbDvyvDyfNrBXxUsb4E-23">
          <mxGeometry relative="1" as="geometry" />
        </mxCell>
        <mxCell id="AMbDvyvDyfNrBXxUsb4E-18" value="" style="rhombus;whiteSpace=wrap;html=1;" vertex="1" parent="Z3lcmmklt4w4jPVKy3j5-1">
          <mxGeometry x="210" y="300" width="20" height="20" as="geometry" />
        </mxCell>
        <mxCell id="AMbDvyvDyfNrBXxUsb4E-29" value="" style="edgeStyle=orthogonalEdgeStyle;orthogonalLoop=1;jettySize=auto;html=1;" edge="1" parent="Z3lcmmklt4w4jPVKy3j5-1" source="AMbDvyvDyfNrBXxUsb4E-21" target="AMbDvyvDyfNrBXxUsb4E-27">
          <mxGeometry relative="1" as="geometry" />
        </mxCell>
        <mxCell id="AMbDvyvDyfNrBXxUsb4E-21" value="Tìm kiếm" style="rounded=0;whiteSpace=wrap;html=1;" vertex="1" parent="Z3lcmmklt4w4jPVKy3j5-1">
          <mxGeometry x="70" y="370" width="85" height="55" as="geometry" />
        </mxCell>
        <mxCell id="AMbDvyvDyfNrBXxUsb4E-28" style="edgeStyle=orthogonalEdgeStyle;orthogonalLoop=1;jettySize=auto;html=1;exitX=0.5;exitY=1;exitDx=0;exitDy=0;entryX=1;entryY=0.5;entryDx=0;entryDy=0;" edge="1" parent="Z3lcmmklt4w4jPVKy3j5-1" source="AMbDvyvDyfNrBXxUsb4E-22" target="AMbDvyvDyfNrBXxUsb4E-27">
          <mxGeometry relative="1" as="geometry" />
        </mxCell>
        <mxCell id="AMbDvyvDyfNrBXxUsb4E-22" value="Duyệt &lt;br&gt;danh sách" style="rounded=0;whiteSpace=wrap;html=1;" vertex="1" parent="Z3lcmmklt4w4jPVKy3j5-1">
          <mxGeometry x="177.5" y="370" width="85" height="55" as="geometry" />
        </mxCell>
        <mxCell id="AMbDvyvDyfNrBXxUsb4E-55" style="edgeStyle=orthogonalEdgeStyle;orthogonalLoop=1;jettySize=auto;html=1;entryX=0;entryY=0.5;entryDx=0;entryDy=0;" edge="1" parent="Z3lcmmklt4w4jPVKy3j5-1" source="AMbDvyvDyfNrBXxUsb4E-23" target="AMbDvyvDyfNrBXxUsb4E-38">
          <mxGeometry relative="1" as="geometry" />
        </mxCell>
        <mxCell id="AMbDvyvDyfNrBXxUsb4E-23" value="Thêm mới nhân sự" style="rounded=0;whiteSpace=wrap;html=1;" vertex="1" parent="Z3lcmmklt4w4jPVKy3j5-1">
          <mxGeometry x="287.5" y="370" width="85" height="55" as="geometry" />
        </mxCell>
        <mxCell id="AMbDvyvDyfNrBXxUsb4E-33" style="edgeStyle=orthogonalEdgeStyle;orthogonalLoop=1;jettySize=auto;html=1;exitX=0;exitY=0.5;exitDx=0;exitDy=0;entryX=0.5;entryY=0;entryDx=0;entryDy=0;" edge="1" parent="Z3lcmmklt4w4jPVKy3j5-1" source="AMbDvyvDyfNrBXxUsb4E-27" target="AMbDvyvDyfNrBXxUsb4E-18">
          <mxGeometry relative="1" as="geometry">
            <Array as="points">
              <mxPoint x="50" y="480" />
              <mxPoint x="50" y="300" />
              <mxPoint x="220" y="300" />
            </Array>
          </mxGeometry>
        </mxCell>
        <mxCell id="AMbDvyvDyfNrBXxUsb4E-34" value="Không tìm thấy" style="edgeLabel;html=1;align=center;verticalAlign=middle;resizable=0;points=[];" vertex="1" connectable="0" parent="AMbDvyvDyfNrBXxUsb4E-33">
          <mxGeometry x="0.3512" y="1" relative="1" as="geometry">
            <mxPoint x="10" as="offset" />
          </mxGeometry>
        </mxCell>
        <mxCell id="AMbDvyvDyfNrBXxUsb4E-41" style="edgeStyle=orthogonalEdgeStyle;orthogonalLoop=1;jettySize=auto;html=1;exitX=0.5;exitY=1;exitDx=0;exitDy=0;entryX=0.5;entryY=0;entryDx=0;entryDy=0;" edge="1" parent="Z3lcmmklt4w4jPVKy3j5-1" source="AMbDvyvDyfNrBXxUsb4E-27" target="AMbDvyvDyfNrBXxUsb4E-35">
          <mxGeometry relative="1" as="geometry" />
        </mxCell>
        <mxCell id="AMbDvyvDyfNrBXxUsb4E-42" value="Tìm thấy" style="edgeLabel;html=1;align=center;verticalAlign=middle;resizable=0;points=[];" vertex="1" connectable="0" parent="AMbDvyvDyfNrBXxUsb4E-41">
          <mxGeometry x="0.0267" y="-1" relative="1" as="geometry">
            <mxPoint x="1" y="23" as="offset" />
          </mxGeometry>
        </mxCell>
        <mxCell id="AMbDvyvDyfNrBXxUsb4E-43" style="edgeStyle=orthogonalEdgeStyle;orthogonalLoop=1;jettySize=auto;html=1;exitX=0.5;exitY=1;exitDx=0;exitDy=0;entryX=0.5;entryY=0;entryDx=0;entryDy=0;" edge="1" parent="Z3lcmmklt4w4jPVKy3j5-1" source="AMbDvyvDyfNrBXxUsb4E-27" target="AMbDvyvDyfNrBXxUsb4E-36">
          <mxGeometry relative="1" as="geometry">
            <Array as="points">
              <mxPoint x="113" y="540" />
              <mxPoint x="220" y="540" />
            </Array>
          </mxGeometry>
        </mxCell>
        <mxCell id="AMbDvyvDyfNrBXxUsb4E-44" value="Tìm thấy" style="edgeLabel;html=1;align=center;verticalAlign=middle;resizable=0;points=[];" vertex="1" connectable="0" parent="AMbDvyvDyfNrBXxUsb4E-43">
          <mxGeometry x="-0.0455" y="-1" relative="1" as="geometry">
            <mxPoint x="40" y="44" as="offset" />
          </mxGeometry>
        </mxCell>
        <mxCell id="AMbDvyvDyfNrBXxUsb4E-27" value="" style="rhombus;whiteSpace=wrap;html=1;" vertex="1" parent="Z3lcmmklt4w4jPVKy3j5-1">
          <mxGeometry x="102.5" y="470" width="20" height="20" as="geometry" />
        </mxCell>
        <mxCell id="AMbDvyvDyfNrBXxUsb4E-35" value="Xem chi tiết nhân sự" style="rounded=0;whiteSpace=wrap;html=1;" vertex="1" parent="Z3lcmmklt4w4jPVKy3j5-1">
          <mxGeometry x="70" y="630" width="85" height="55" as="geometry" />
        </mxCell>
        <mxCell id="AMbDvyvDyfNrBXxUsb4E-49" style="edgeStyle=orthogonalEdgeStyle;orthogonalLoop=1;jettySize=auto;html=1;exitX=1;exitY=0.5;exitDx=0;exitDy=0;entryX=0;entryY=0.5;entryDx=0;entryDy=0;" edge="1" parent="Z3lcmmklt4w4jPVKy3j5-1" source="AMbDvyvDyfNrBXxUsb4E-36" target="AMbDvyvDyfNrBXxUsb4E-40">
          <mxGeometry relative="1" as="geometry" />
        </mxCell>
        <mxCell id="AMbDvyvDyfNrBXxUsb4E-36" value="Xóa nhân sự" style="rounded=0;whiteSpace=wrap;html=1;" vertex="1" parent="Z3lcmmklt4w4jPVKy3j5-1">
          <mxGeometry x="177.5" y="630" width="85" height="55" as="geometry" />
        </mxCell>
        <mxCell id="AMbDvyvDyfNrBXxUsb4E-53" style="edgeStyle=orthogonalEdgeStyle;orthogonalLoop=1;jettySize=auto;html=1;entryX=0;entryY=0.5;entryDx=0;entryDy=0;" edge="1" parent="Z3lcmmklt4w4jPVKy3j5-1" source="AMbDvyvDyfNrBXxUsb4E-37" target="AMbDvyvDyfNrBXxUsb4E-52">
          <mxGeometry relative="1" as="geometry" />
        </mxCell>
        <mxCell id="AMbDvyvDyfNrBXxUsb4E-37" value="Xác nhận xóa nhân sự" style="rounded=0;whiteSpace=wrap;html=1;" vertex="1" parent="Z3lcmmklt4w4jPVKy3j5-1">
          <mxGeometry x="177.5" y="730" width="85" height="55" as="geometry" />
        </mxCell>
        <mxCell id="AMbDvyvDyfNrBXxUsb4E-38" value="Hiển thị giao diện thêm mới" style="rounded=0;whiteSpace=wrap;html=1;" vertex="1" parent="Z3lcmmklt4w4jPVKy3j5-1">
          <mxGeometry x="537.5" y="370" width="85" height="55" as="geometry" />
        </mxCell>
        <mxCell id="AMbDvyvDyfNrBXxUsb4E-68" style="edgeStyle=orthogonalEdgeStyle;orthogonalLoop=1;jettySize=auto;html=1;exitX=0.5;exitY=1;exitDx=0;exitDy=0;entryX=0.5;entryY=0;entryDx=0;entryDy=0;" edge="1" parent="Z3lcmmklt4w4jPVKy3j5-1" source="AMbDvyvDyfNrBXxUsb4E-39" target="AMbDvyvDyfNrBXxUsb4E-57">
          <mxGeometry relative="1" as="geometry" />
        </mxCell>
        <mxCell id="AMbDvyvDyfNrBXxUsb4E-39" value="Nhập thông tin cần thiết" style="rounded=0;whiteSpace=wrap;html=1;" vertex="1" parent="Z3lcmmklt4w4jPVKy3j5-1">
          <mxGeometry x="287.5" y="480" width="85" height="55" as="geometry" />
        </mxCell>
        <mxCell id="AMbDvyvDyfNrBXxUsb4E-40" value="Hiển thị thông báo xác nhận xóa" style="rounded=0;whiteSpace=wrap;html=1;" vertex="1" parent="Z3lcmmklt4w4jPVKy3j5-1">
          <mxGeometry x="537.5" y="630" width="85" height="55" as="geometry" />
        </mxCell>
        <mxCell id="AMbDvyvDyfNrBXxUsb4E-73" style="edgeStyle=orthogonalEdgeStyle;orthogonalLoop=1;jettySize=auto;html=1;exitX=0.5;exitY=1;exitDx=0;exitDy=0;entryX=0.5;entryY=0;entryDx=0;entryDy=0;" edge="1" parent="Z3lcmmklt4w4jPVKy3j5-1" source="AMbDvyvDyfNrBXxUsb4E-45" target="AMbDvyvDyfNrBXxUsb4E-72">
          <mxGeometry relative="1" as="geometry" />
        </mxCell>
        <mxCell id="AMbDvyvDyfNrBXxUsb4E-74" value="Đăng xuất" style="edgeLabel;html=1;align=center;verticalAlign=middle;resizable=0;points=[];" vertex="1" connectable="0" parent="AMbDvyvDyfNrBXxUsb4E-73">
          <mxGeometry x="-0.219" y="1" relative="1" as="geometry">
            <mxPoint x="-1" as="offset" />
          </mxGeometry>
        </mxCell>
        <mxCell id="AMbDvyvDyfNrBXxUsb4E-45" value="Hiển thị thông tin nhân sự" style="rounded=0;whiteSpace=wrap;html=1;" vertex="1" parent="Z3lcmmklt4w4jPVKy3j5-1">
          <mxGeometry x="537.5" y="810" width="85" height="55" as="geometry" />
        </mxCell>
        <mxCell id="AMbDvyvDyfNrBXxUsb4E-48" value="" style="endArrow=classic;html=1;entryX=0;entryY=0.5;entryDx=0;entryDy=0;exitX=0.5;exitY=1;exitDx=0;exitDy=0;" edge="1" parent="Z3lcmmklt4w4jPVKy3j5-1" source="AMbDvyvDyfNrBXxUsb4E-35" target="AMbDvyvDyfNrBXxUsb4E-45">
          <mxGeometry width="50" height="50" relative="1" as="geometry">
            <mxPoint x="100" y="720" as="sourcePoint" />
            <mxPoint x="410" y="600" as="targetPoint" />
            <Array as="points">
              <mxPoint x="113" y="838" />
            </Array>
          </mxGeometry>
        </mxCell>
        <mxCell id="AMbDvyvDyfNrBXxUsb4E-51" value="" style="endArrow=classic;html=1;entryX=1;entryY=0.5;entryDx=0;entryDy=0;exitX=0;exitY=1;exitDx=0;exitDy=0;" edge="1" parent="Z3lcmmklt4w4jPVKy3j5-1" source="AMbDvyvDyfNrBXxUsb4E-40" target="AMbDvyvDyfNrBXxUsb4E-37">
          <mxGeometry width="50" height="50" relative="1" as="geometry">
            <mxPoint x="360" y="650" as="sourcePoint" />
            <mxPoint x="410" y="600" as="targetPoint" />
          </mxGeometry>
        </mxCell>
        <mxCell id="AMbDvyvDyfNrBXxUsb4E-52" value="Xóa khỏi hệ thống" style="rounded=0;whiteSpace=wrap;html=1;" vertex="1" parent="Z3lcmmklt4w4jPVKy3j5-1">
          <mxGeometry x="537.5" y="730" width="85" height="55" as="geometry" />
        </mxCell>
        <mxCell id="AMbDvyvDyfNrBXxUsb4E-54" value="" style="endArrow=classic;html=1;exitX=1;exitY=0.5;exitDx=0;exitDy=0;entryX=1;entryY=0.5;entryDx=0;entryDy=0;" edge="1" parent="Z3lcmmklt4w4jPVKy3j5-1" source="AMbDvyvDyfNrBXxUsb4E-52" target="AMbDvyvDyfNrBXxUsb4E-6">
          <mxGeometry width="50" height="50" relative="1" as="geometry">
            <mxPoint x="360" y="580" as="sourcePoint" />
            <mxPoint x="410" y="530" as="targetPoint" />
            <Array as="points">
              <mxPoint x="690" y="758" />
              <mxPoint x="690" y="218" />
            </Array>
          </mxGeometry>
        </mxCell>
        <mxCell id="AMbDvyvDyfNrBXxUsb4E-60" style="edgeStyle=orthogonalEdgeStyle;orthogonalLoop=1;jettySize=auto;html=1;exitX=0.5;exitY=1;exitDx=0;exitDy=0;entryX=0.5;entryY=0;entryDx=0;entryDy=0;" edge="1" parent="Z3lcmmklt4w4jPVKy3j5-1" source="AMbDvyvDyfNrBXxUsb4E-56" target="AMbDvyvDyfNrBXxUsb4E-39">
          <mxGeometry relative="1" as="geometry" />
        </mxCell>
        <mxCell id="AMbDvyvDyfNrBXxUsb4E-61" value="Không" style="edgeLabel;html=1;align=center;verticalAlign=middle;resizable=0;points=[];" vertex="1" connectable="0" parent="AMbDvyvDyfNrBXxUsb4E-60">
          <mxGeometry x="-0.2444" y="-1" relative="1" as="geometry">
            <mxPoint x="-19" y="-6" as="offset" />
          </mxGeometry>
        </mxCell>
        <mxCell id="AMbDvyvDyfNrBXxUsb4E-79" style="edgeStyle=orthogonalEdgeStyle;orthogonalLoop=1;jettySize=auto;html=1;exitX=1;exitY=0.5;exitDx=0;exitDy=0;entryX=0;entryY=0.5;entryDx=0;entryDy=0;" edge="1" parent="Z3lcmmklt4w4jPVKy3j5-1" source="AMbDvyvDyfNrBXxUsb4E-56" target="AMbDvyvDyfNrBXxUsb4E-62">
          <mxGeometry relative="1" as="geometry" />
        </mxCell>
        <mxCell id="AMbDvyvDyfNrBXxUsb4E-80" value="Có" style="edgeLabel;html=1;align=center;verticalAlign=middle;resizable=0;points=[];" vertex="1" connectable="0" parent="AMbDvyvDyfNrBXxUsb4E-79">
          <mxGeometry x="-0.3544" y="-1" relative="1" as="geometry">
            <mxPoint y="-2" as="offset" />
          </mxGeometry>
        </mxCell>
        <mxCell id="AMbDvyvDyfNrBXxUsb4E-56" value="" style="rhombus;whiteSpace=wrap;html=1;" vertex="1" parent="Z3lcmmklt4w4jPVKy3j5-1">
          <mxGeometry x="320" y="440" width="20" height="20" as="geometry" />
        </mxCell>
        <mxCell id="AMbDvyvDyfNrBXxUsb4E-70" style="edgeStyle=orthogonalEdgeStyle;orthogonalLoop=1;jettySize=auto;html=1;exitX=1;exitY=0.5;exitDx=0;exitDy=0;entryX=0;entryY=0.5;entryDx=0;entryDy=0;" edge="1" parent="Z3lcmmklt4w4jPVKy3j5-1" source="AMbDvyvDyfNrBXxUsb4E-57" target="AMbDvyvDyfNrBXxUsb4E-69">
          <mxGeometry relative="1" as="geometry" />
        </mxCell>
        <mxCell id="AMbDvyvDyfNrBXxUsb4E-57" value="Xác nhận &lt;br&gt;thêm mới" style="rounded=0;whiteSpace=wrap;html=1;" vertex="1" parent="Z3lcmmklt4w4jPVKy3j5-1">
          <mxGeometry x="287.5" y="557" width="85" height="55" as="geometry" />
        </mxCell>
        <mxCell id="AMbDvyvDyfNrBXxUsb4E-58" value="" style="endArrow=classic;html=1;entryX=0.5;entryY=0;entryDx=0;entryDy=0;exitX=0;exitY=1;exitDx=0;exitDy=0;" edge="1" parent="Z3lcmmklt4w4jPVKy3j5-1" source="AMbDvyvDyfNrBXxUsb4E-38" target="AMbDvyvDyfNrBXxUsb4E-56">
          <mxGeometry width="50" height="50" relative="1" as="geometry">
            <mxPoint x="360" y="460" as="sourcePoint" />
            <mxPoint x="410" y="410" as="targetPoint" />
          </mxGeometry>
        </mxCell>
        <mxCell id="AMbDvyvDyfNrBXxUsb4E-59" value="Đăng xuất" style="edgeLabel;html=1;align=center;verticalAlign=middle;resizable=0;points=[];" vertex="1" connectable="0" parent="AMbDvyvDyfNrBXxUsb4E-58">
          <mxGeometry x="-0.3361" y="1" relative="1" as="geometry">
            <mxPoint as="offset" />
          </mxGeometry>
        </mxCell>
        <mxCell id="AMbDvyvDyfNrBXxUsb4E-81" style="edgeStyle=orthogonalEdgeStyle;orthogonalLoop=1;jettySize=auto;html=1;exitX=0.5;exitY=1;exitDx=0;exitDy=0;entryX=1;entryY=0.5;entryDx=0;entryDy=0;" edge="1" parent="Z3lcmmklt4w4jPVKy3j5-1" source="AMbDvyvDyfNrBXxUsb4E-62" target="AMbDvyvDyfNrBXxUsb4E-75">
          <mxGeometry relative="1" as="geometry" />
        </mxCell>
        <mxCell id="AMbDvyvDyfNrBXxUsb4E-62" value="" style="rhombus;whiteSpace=wrap;html=1;" vertex="1" parent="Z3lcmmklt4w4jPVKy3j5-1">
          <mxGeometry x="720" y="440" width="20" height="20" as="geometry" />
        </mxCell>
        <mxCell id="AMbDvyvDyfNrBXxUsb4E-71" style="edgeStyle=orthogonalEdgeStyle;orthogonalLoop=1;jettySize=auto;html=1;exitX=1;exitY=0.5;exitDx=0;exitDy=0;entryX=1;entryY=0.25;entryDx=0;entryDy=0;" edge="1" parent="Z3lcmmklt4w4jPVKy3j5-1" source="AMbDvyvDyfNrBXxUsb4E-69" target="AMbDvyvDyfNrBXxUsb4E-45">
          <mxGeometry relative="1" as="geometry">
            <Array as="points">
              <mxPoint x="660" y="585" />
              <mxPoint x="660" y="824" />
            </Array>
          </mxGeometry>
        </mxCell>
        <mxCell id="AMbDvyvDyfNrBXxUsb4E-69" value="Kiểm tra thông tin và lưu vào hệ thống" style="rounded=0;whiteSpace=wrap;html=1;" vertex="1" parent="Z3lcmmklt4w4jPVKy3j5-1">
          <mxGeometry x="537.5" y="557" width="85" height="55" as="geometry" />
        </mxCell>
        <mxCell id="AMbDvyvDyfNrBXxUsb4E-76" style="edgeStyle=orthogonalEdgeStyle;orthogonalLoop=1;jettySize=auto;html=1;exitX=0.5;exitY=1;exitDx=0;exitDy=0;entryX=0.5;entryY=0;entryDx=0;entryDy=0;" edge="1" parent="Z3lcmmklt4w4jPVKy3j5-1" source="AMbDvyvDyfNrBXxUsb4E-72" target="AMbDvyvDyfNrBXxUsb4E-75">
          <mxGeometry relative="1" as="geometry" />
        </mxCell>
        <mxCell id="AMbDvyvDyfNrBXxUsb4E-77" value="Có" style="edgeLabel;html=1;align=center;verticalAlign=middle;resizable=0;points=[];" vertex="1" connectable="0" parent="AMbDvyvDyfNrBXxUsb4E-76">
          <mxGeometry x="0.2103" relative="1" as="geometry">
            <mxPoint x="-1" y="-124" as="offset" />
          </mxGeometry>
        </mxCell>
        <mxCell id="AMbDvyvDyfNrBXxUsb4E-87" style="edgeStyle=orthogonalEdgeStyle;orthogonalLoop=1;jettySize=auto;html=1;exitX=0;exitY=0.5;exitDx=0;exitDy=0;entryX=1;entryY=0.5;entryDx=0;entryDy=0;" edge="1" parent="Z3lcmmklt4w4jPVKy3j5-1" source="AMbDvyvDyfNrBXxUsb4E-72" target="AMbDvyvDyfNrBXxUsb4E-82">
          <mxGeometry relative="1" as="geometry" />
        </mxCell>
        <mxCell id="AMbDvyvDyfNrBXxUsb4E-88" value="Không" style="edgeLabel;html=1;align=center;verticalAlign=middle;resizable=0;points=[];" vertex="1" connectable="0" parent="AMbDvyvDyfNrBXxUsb4E-87">
          <mxGeometry x="-0.2" y="1" relative="1" as="geometry">
            <mxPoint y="-1" as="offset" />
          </mxGeometry>
        </mxCell>
        <mxCell id="AMbDvyvDyfNrBXxUsb4E-72" value="" style="rhombus;whiteSpace=wrap;html=1;" vertex="1" parent="Z3lcmmklt4w4jPVKy3j5-1">
          <mxGeometry x="570" y="927.5" width="20" height="20" as="geometry" />
        </mxCell>
        <mxCell id="AMbDvyvDyfNrBXxUsb4E-78" style="edgeStyle=orthogonalEdgeStyle;orthogonalLoop=1;jettySize=auto;html=1;exitX=0;exitY=0.5;exitDx=0;exitDy=0;entryX=1;entryY=0.5;entryDx=0;entryDy=0;" edge="1" parent="Z3lcmmklt4w4jPVKy3j5-1" source="AMbDvyvDyfNrBXxUsb4E-75" target="AMbDvyvDyfNrBXxUsb4E-16">
          <mxGeometry relative="1" as="geometry" />
        </mxCell>
        <mxCell id="AMbDvyvDyfNrBXxUsb4E-75" value="" style="rhombus;whiteSpace=wrap;html=1;" vertex="1" parent="Z3lcmmklt4w4jPVKy3j5-1">
          <mxGeometry x="570" y="1215" width="20" height="20" as="geometry" />
        </mxCell>
        <mxCell id="AMbDvyvDyfNrBXxUsb4E-82" value="Cập nhật thông tin nhân sự" style="rounded=0;whiteSpace=wrap;html=1;" vertex="1" parent="Z3lcmmklt4w4jPVKy3j5-1">
          <mxGeometry x="280" y="910" width="85" height="55" as="geometry" />
        </mxCell>
        <mxCell id="AMbDvyvDyfNrBXxUsb4E-91" style="edgeStyle=orthogonalEdgeStyle;orthogonalLoop=1;jettySize=auto;html=1;exitX=0.5;exitY=1;exitDx=0;exitDy=0;entryX=0.5;entryY=0;entryDx=0;entryDy=0;" edge="1" parent="Z3lcmmklt4w4jPVKy3j5-1" source="AMbDvyvDyfNrBXxUsb4E-83" target="AMbDvyvDyfNrBXxUsb4E-84">
          <mxGeometry relative="1" as="geometry" />
        </mxCell>
        <mxCell id="AMbDvyvDyfNrBXxUsb4E-83" value="Nhập thông tin cần sửa" style="rounded=0;whiteSpace=wrap;html=1;" vertex="1" parent="Z3lcmmklt4w4jPVKy3j5-1">
          <mxGeometry x="280" y="1010" width="85" height="55" as="geometry" />
        </mxCell>
        <mxCell id="AMbDvyvDyfNrBXxUsb4E-93" style="edgeStyle=orthogonalEdgeStyle;orthogonalLoop=1;jettySize=auto;html=1;exitX=1;exitY=0.5;exitDx=0;exitDy=0;entryX=0;entryY=0.5;entryDx=0;entryDy=0;" edge="1" parent="Z3lcmmklt4w4jPVKy3j5-1" source="AMbDvyvDyfNrBXxUsb4E-84" target="AMbDvyvDyfNrBXxUsb4E-92">
          <mxGeometry relative="1" as="geometry" />
        </mxCell>
        <mxCell id="AMbDvyvDyfNrBXxUsb4E-84" value="Xác nhận sửa" style="rounded=0;whiteSpace=wrap;html=1;" vertex="1" parent="Z3lcmmklt4w4jPVKy3j5-1">
          <mxGeometry x="280" y="1114" width="85" height="55" as="geometry" />
        </mxCell>
        <mxCell id="AMbDvyvDyfNrBXxUsb4E-90" style="edgeStyle=orthogonalEdgeStyle;orthogonalLoop=1;jettySize=auto;html=1;exitX=0;exitY=0.5;exitDx=0;exitDy=0;entryX=1;entryY=0.5;entryDx=0;entryDy=0;" edge="1" parent="Z3lcmmklt4w4jPVKy3j5-1" source="AMbDvyvDyfNrBXxUsb4E-86" target="AMbDvyvDyfNrBXxUsb4E-83">
          <mxGeometry relative="1" as="geometry" />
        </mxCell>
        <mxCell id="AMbDvyvDyfNrBXxUsb4E-86" value="Hiển thị giao diện thêm cập nhật" style="rounded=0;whiteSpace=wrap;html=1;" vertex="1" parent="Z3lcmmklt4w4jPVKy3j5-1">
          <mxGeometry x="440" y="1010" width="85" height="55" as="geometry" />
        </mxCell>
        <mxCell id="AMbDvyvDyfNrBXxUsb4E-96" style="edgeStyle=orthogonalEdgeStyle;orthogonalLoop=1;jettySize=auto;html=1;exitX=1;exitY=0.5;exitDx=0;exitDy=0;entryX=1;entryY=0.5;entryDx=0;entryDy=0;" edge="1" parent="Z3lcmmklt4w4jPVKy3j5-1" source="AMbDvyvDyfNrBXxUsb4E-92" target="AMbDvyvDyfNrBXxUsb4E-45">
          <mxGeometry relative="1" as="geometry">
            <Array as="points">
              <mxPoint x="660" y="1142" />
              <mxPoint x="660" y="838" />
            </Array>
          </mxGeometry>
        </mxCell>
        <mxCell id="AMbDvyvDyfNrBXxUsb4E-92" value="Lưu thông tin" style="rounded=0;whiteSpace=wrap;html=1;" vertex="1" parent="Z3lcmmklt4w4jPVKy3j5-1">
          <mxGeometry x="440" y="1114" width="85" height="55" as="geometry" />
        </mxCell>
        <mxCell id="AMbDvyvDyfNrBXxUsb4E-94" value="" style="endArrow=classic;html=1;exitX=1;exitY=1;exitDx=0;exitDy=0;entryX=0;entryY=0;entryDx=0;entryDy=0;" edge="1" parent="Z3lcmmklt4w4jPVKy3j5-1" source="AMbDvyvDyfNrBXxUsb4E-82" target="AMbDvyvDyfNrBXxUsb4E-86">
          <mxGeometry width="50" height="50" relative="1" as="geometry">
            <mxPoint x="360" y="940" as="sourcePoint" />
            <mxPoint x="410" y="890" as="targetPoint" />
          </mxGeometry>
        </mxCell>
      </root>
    </mxGraphModel>
  </diagram>
  <diagram name="dsachcongviec" id="EtNSosYrqhG3nUJVcSfM">
    <mxGraphModel dx="746" dy="459" grid="1" gridSize="10" guides="1" tooltips="1" connect="1" arrows="1" fold="1" page="1" pageScale="1" pageWidth="827" pageHeight="1169" math="0" shadow="0">
      <root>
        <mxCell id="Dr9qmFoqHpHmRpZx1d1R-0" />
        <mxCell id="Dr9qmFoqHpHmRpZx1d1R-1" parent="Dr9qmFoqHpHmRpZx1d1R-0" />
        <mxCell id="Dr9qmFoqHpHmRpZx1d1R-2" value="Người dùng" style="rounded=0;whiteSpace=wrap;html=1;fillColor=#dae8fc;strokeColor=#000000;strokeWidth=2;fontSize=16;fontStyle=1;movable=0;resizable=0;rotatable=0;deletable=0;editable=0;locked=1;connectable=0;" vertex="1" parent="Dr9qmFoqHpHmRpZx1d1R-1">
          <mxGeometry x="40" y="40" width="360" height="40" as="geometry" />
        </mxCell>
        <mxCell id="Dr9qmFoqHpHmRpZx1d1R-3" value="Hệ thống" style="rounded=0;whiteSpace=wrap;html=1;fillColor=#dae8fc;strokeColor=#000000;strokeWidth=2;fontSize=16;fontStyle=1;movable=0;resizable=0;rotatable=0;deletable=0;editable=0;locked=1;connectable=0;" vertex="1" parent="Dr9qmFoqHpHmRpZx1d1R-1">
          <mxGeometry x="400" y="40" width="360" height="40" as="geometry" />
        </mxCell>
        <mxCell id="Dr9qmFoqHpHmRpZx1d1R-4" value="" style="rounded=0;whiteSpace=wrap;html=1;strokeWidth=2;movable=0;resizable=0;rotatable=0;deletable=0;editable=0;locked=1;connectable=0;" vertex="1" parent="Dr9qmFoqHpHmRpZx1d1R-1">
          <mxGeometry x="40" y="80" width="360" height="1200" as="geometry" />
        </mxCell>
        <mxCell id="Dr9qmFoqHpHmRpZx1d1R-5" value="" style="rounded=0;whiteSpace=wrap;html=1;strokeWidth=2;movable=0;resizable=0;rotatable=0;deletable=0;editable=0;locked=1;connectable=0;" vertex="1" parent="Dr9qmFoqHpHmRpZx1d1R-1">
          <mxGeometry x="400" y="80" width="360" height="1200" as="geometry" />
        </mxCell>
        <mxCell id="Dr9qmFoqHpHmRpZx1d1R-6" value="" style="ellipse;whiteSpace=wrap;html=1;aspect=fixed;fillColor=#000000;" vertex="1" parent="Dr9qmFoqHpHmRpZx1d1R-1">
          <mxGeometry x="80" y="110" width="30" height="30" as="geometry" />
        </mxCell>
        <mxCell id="Dr9qmFoqHpHmRpZx1d1R-7" value="" style="edgeStyle=orthogonalEdgeStyle;orthogonalLoop=1;jettySize=auto;html=1;" edge="1" parent="Dr9qmFoqHpHmRpZx1d1R-1" source="Dr9qmFoqHpHmRpZx1d1R-8" target="Dr9qmFoqHpHmRpZx1d1R-11">
          <mxGeometry relative="1" as="geometry" />
        </mxCell>
        <mxCell id="Dr9qmFoqHpHmRpZx1d1R-8" value="Đăng nhập" style="rounded=0;whiteSpace=wrap;html=1;" vertex="1" parent="Dr9qmFoqHpHmRpZx1d1R-1">
          <mxGeometry x="177.5" y="97.5" width="85" height="55" as="geometry" />
        </mxCell>
        <mxCell id="Dr9qmFoqHpHmRpZx1d1R-9" value="" style="endArrow=classic;html=1;exitX=1;exitY=0.5;exitDx=0;exitDy=0;entryX=0;entryY=0.5;entryDx=0;entryDy=0;" edge="1" parent="Dr9qmFoqHpHmRpZx1d1R-1" source="Dr9qmFoqHpHmRpZx1d1R-6" target="Dr9qmFoqHpHmRpZx1d1R-8">
          <mxGeometry width="50" height="50" relative="1" as="geometry">
            <mxPoint x="360" y="190" as="sourcePoint" />
            <mxPoint x="410" y="140" as="targetPoint" />
          </mxGeometry>
        </mxCell>
        <mxCell id="Dr9qmFoqHpHmRpZx1d1R-10" style="edgeStyle=orthogonalEdgeStyle;orthogonalLoop=1;jettySize=auto;html=1;entryX=0;entryY=0.5;entryDx=0;entryDy=0;" edge="1" parent="Dr9qmFoqHpHmRpZx1d1R-1" source="Dr9qmFoqHpHmRpZx1d1R-11" target="Dr9qmFoqHpHmRpZx1d1R-12">
          <mxGeometry relative="1" as="geometry" />
        </mxCell>
        <mxCell id="Dr9qmFoqHpHmRpZx1d1R-11" value="Xem danh sách công việc" style="rounded=0;whiteSpace=wrap;html=1;" vertex="1" parent="Dr9qmFoqHpHmRpZx1d1R-1">
          <mxGeometry x="177.5" y="190" width="85" height="55" as="geometry" />
        </mxCell>
        <mxCell id="Dr9qmFoqHpHmRpZx1d1R-12" value="Hiển thị danh sách công việc" style="rounded=0;whiteSpace=wrap;html=1;" vertex="1" parent="Dr9qmFoqHpHmRpZx1d1R-1">
          <mxGeometry x="537.5" y="190" width="85" height="55" as="geometry" />
        </mxCell>
        <mxCell id="Dr9qmFoqHpHmRpZx1d1R-13" style="edgeStyle=orthogonalEdgeStyle;orthogonalLoop=1;jettySize=auto;html=1;exitX=0;exitY=0.5;exitDx=0;exitDy=0;entryX=0.5;entryY=0;entryDx=0;entryDy=0;" edge="1" parent="Dr9qmFoqHpHmRpZx1d1R-1" source="Dr9qmFoqHpHmRpZx1d1R-17" target="Dr9qmFoqHpHmRpZx1d1R-26">
          <mxGeometry relative="1" as="geometry" />
        </mxCell>
        <mxCell id="Dr9qmFoqHpHmRpZx1d1R-14" value="Không" style="edgeLabel;html=1;align=center;verticalAlign=middle;resizable=0;points=[];" vertex="1" connectable="0" parent="Dr9qmFoqHpHmRpZx1d1R-13">
          <mxGeometry x="-0.2444" y="-1" relative="1" as="geometry">
            <mxPoint as="offset" />
          </mxGeometry>
        </mxCell>
        <mxCell id="Dr9qmFoqHpHmRpZx1d1R-15" style="edgeStyle=orthogonalEdgeStyle;orthogonalLoop=1;jettySize=auto;html=1;exitX=0.5;exitY=1;exitDx=0;exitDy=0;entryX=0.5;entryY=0;entryDx=0;entryDy=0;" edge="1" parent="Dr9qmFoqHpHmRpZx1d1R-1" source="Dr9qmFoqHpHmRpZx1d1R-17" target="Dr9qmFoqHpHmRpZx1d1R-66">
          <mxGeometry relative="1" as="geometry">
            <Array as="points">
              <mxPoint x="330" y="300" />
              <mxPoint x="730" y="300" />
            </Array>
          </mxGeometry>
        </mxCell>
        <mxCell id="Dr9qmFoqHpHmRpZx1d1R-16" value="Có" style="edgeLabel;html=1;align=center;verticalAlign=middle;resizable=0;points=[];" vertex="1" connectable="0" parent="Dr9qmFoqHpHmRpZx1d1R-15">
          <mxGeometry x="-0.4085" y="-1" relative="1" as="geometry">
            <mxPoint x="-9" y="-2" as="offset" />
          </mxGeometry>
        </mxCell>
        <mxCell id="Dr9qmFoqHpHmRpZx1d1R-17" value="" style="rhombus;whiteSpace=wrap;html=1;" vertex="1" parent="Dr9qmFoqHpHmRpZx1d1R-1">
          <mxGeometry x="320" y="260" width="20" height="20" as="geometry" />
        </mxCell>
        <mxCell id="Dr9qmFoqHpHmRpZx1d1R-18" value="" style="endArrow=classic;html=1;entryX=1;entryY=0.5;entryDx=0;entryDy=0;exitX=0;exitY=1;exitDx=0;exitDy=0;" edge="1" parent="Dr9qmFoqHpHmRpZx1d1R-1" source="Dr9qmFoqHpHmRpZx1d1R-12" target="Dr9qmFoqHpHmRpZx1d1R-17">
          <mxGeometry width="50" height="50" relative="1" as="geometry">
            <mxPoint x="360" y="270" as="sourcePoint" />
            <mxPoint x="410" y="220" as="targetPoint" />
          </mxGeometry>
        </mxCell>
        <mxCell id="Dr9qmFoqHpHmRpZx1d1R-19" value="Đăng xuất" style="edgeLabel;html=1;align=center;verticalAlign=middle;resizable=0;points=[];" vertex="1" connectable="0" parent="Dr9qmFoqHpHmRpZx1d1R-18">
          <mxGeometry x="-0.114" relative="1" as="geometry">
            <mxPoint x="22" y="-5" as="offset" />
          </mxGeometry>
        </mxCell>
        <mxCell id="Dr9qmFoqHpHmRpZx1d1R-20" value="" style="ellipse;whiteSpace=wrap;html=1;aspect=fixed;fillColor=#000000;" vertex="1" parent="Dr9qmFoqHpHmRpZx1d1R-1">
          <mxGeometry x="80" y="1210" width="30" height="30" as="geometry" />
        </mxCell>
        <mxCell id="Dr9qmFoqHpHmRpZx1d1R-21" style="edgeStyle=orthogonalEdgeStyle;orthogonalLoop=1;jettySize=auto;html=1;exitX=0;exitY=0.5;exitDx=0;exitDy=0;entryX=1;entryY=0.5;entryDx=0;entryDy=0;" edge="1" parent="Dr9qmFoqHpHmRpZx1d1R-1" source="Dr9qmFoqHpHmRpZx1d1R-22" target="Dr9qmFoqHpHmRpZx1d1R-20">
          <mxGeometry relative="1" as="geometry" />
        </mxCell>
        <mxCell id="Dr9qmFoqHpHmRpZx1d1R-22" value="Đăng xuất" style="rounded=0;whiteSpace=wrap;html=1;" vertex="1" parent="Dr9qmFoqHpHmRpZx1d1R-1">
          <mxGeometry x="177.5" y="1197.5" width="85" height="55" as="geometry" />
        </mxCell>
        <mxCell id="Dr9qmFoqHpHmRpZx1d1R-23" style="edgeStyle=orthogonalEdgeStyle;orthogonalLoop=1;jettySize=auto;html=1;exitX=0;exitY=0.5;exitDx=0;exitDy=0;entryX=0.5;entryY=0;entryDx=0;entryDy=0;" edge="1" parent="Dr9qmFoqHpHmRpZx1d1R-1" source="Dr9qmFoqHpHmRpZx1d1R-26" target="Dr9qmFoqHpHmRpZx1d1R-28">
          <mxGeometry relative="1" as="geometry" />
        </mxCell>
        <mxCell id="Dr9qmFoqHpHmRpZx1d1R-24" value="" style="edgeStyle=orthogonalEdgeStyle;orthogonalLoop=1;jettySize=auto;html=1;" edge="1" parent="Dr9qmFoqHpHmRpZx1d1R-1" source="Dr9qmFoqHpHmRpZx1d1R-26" target="Dr9qmFoqHpHmRpZx1d1R-30">
          <mxGeometry relative="1" as="geometry" />
        </mxCell>
        <mxCell id="Dr9qmFoqHpHmRpZx1d1R-25" style="edgeStyle=orthogonalEdgeStyle;orthogonalLoop=1;jettySize=auto;html=1;entryX=0.5;entryY=0;entryDx=0;entryDy=0;" edge="1" parent="Dr9qmFoqHpHmRpZx1d1R-1" source="Dr9qmFoqHpHmRpZx1d1R-26" target="Dr9qmFoqHpHmRpZx1d1R-32">
          <mxGeometry relative="1" as="geometry" />
        </mxCell>
        <mxCell id="Dr9qmFoqHpHmRpZx1d1R-26" value="" style="rhombus;whiteSpace=wrap;html=1;" vertex="1" parent="Dr9qmFoqHpHmRpZx1d1R-1">
          <mxGeometry x="210" y="300" width="20" height="20" as="geometry" />
        </mxCell>
        <mxCell id="Dr9qmFoqHpHmRpZx1d1R-27" value="" style="edgeStyle=orthogonalEdgeStyle;orthogonalLoop=1;jettySize=auto;html=1;" edge="1" parent="Dr9qmFoqHpHmRpZx1d1R-1" source="Dr9qmFoqHpHmRpZx1d1R-28" target="Dr9qmFoqHpHmRpZx1d1R-39">
          <mxGeometry relative="1" as="geometry" />
        </mxCell>
        <mxCell id="Dr9qmFoqHpHmRpZx1d1R-28" value="Tìm kiếm" style="rounded=0;whiteSpace=wrap;html=1;" vertex="1" parent="Dr9qmFoqHpHmRpZx1d1R-1">
          <mxGeometry x="70" y="370" width="85" height="55" as="geometry" />
        </mxCell>
        <mxCell id="Dr9qmFoqHpHmRpZx1d1R-29" style="edgeStyle=orthogonalEdgeStyle;orthogonalLoop=1;jettySize=auto;html=1;exitX=0.5;exitY=1;exitDx=0;exitDy=0;entryX=1;entryY=0.5;entryDx=0;entryDy=0;" edge="1" parent="Dr9qmFoqHpHmRpZx1d1R-1" source="Dr9qmFoqHpHmRpZx1d1R-30" target="Dr9qmFoqHpHmRpZx1d1R-39">
          <mxGeometry relative="1" as="geometry" />
        </mxCell>
        <mxCell id="Dr9qmFoqHpHmRpZx1d1R-30" value="Duyệt &lt;br&gt;danh sách" style="rounded=0;whiteSpace=wrap;html=1;" vertex="1" parent="Dr9qmFoqHpHmRpZx1d1R-1">
          <mxGeometry x="177.5" y="370" width="85" height="55" as="geometry" />
        </mxCell>
        <mxCell id="Dr9qmFoqHpHmRpZx1d1R-31" style="edgeStyle=orthogonalEdgeStyle;orthogonalLoop=1;jettySize=auto;html=1;entryX=0;entryY=0.5;entryDx=0;entryDy=0;" edge="1" parent="Dr9qmFoqHpHmRpZx1d1R-1" source="Dr9qmFoqHpHmRpZx1d1R-32" target="Dr9qmFoqHpHmRpZx1d1R-45">
          <mxGeometry relative="1" as="geometry" />
        </mxCell>
        <mxCell id="Dr9qmFoqHpHmRpZx1d1R-32" value="Thêm mới công việc" style="rounded=0;whiteSpace=wrap;html=1;" vertex="1" parent="Dr9qmFoqHpHmRpZx1d1R-1">
          <mxGeometry x="287.5" y="370" width="85" height="55" as="geometry" />
        </mxCell>
        <mxCell id="Dr9qmFoqHpHmRpZx1d1R-33" style="edgeStyle=orthogonalEdgeStyle;orthogonalLoop=1;jettySize=auto;html=1;exitX=0;exitY=0.5;exitDx=0;exitDy=0;entryX=0.5;entryY=0;entryDx=0;entryDy=0;" edge="1" parent="Dr9qmFoqHpHmRpZx1d1R-1" source="Dr9qmFoqHpHmRpZx1d1R-39" target="Dr9qmFoqHpHmRpZx1d1R-26">
          <mxGeometry relative="1" as="geometry">
            <Array as="points">
              <mxPoint x="50" y="480" />
              <mxPoint x="50" y="300" />
              <mxPoint x="220" y="300" />
            </Array>
          </mxGeometry>
        </mxCell>
        <mxCell id="Dr9qmFoqHpHmRpZx1d1R-34" value="Không tìm thấy" style="edgeLabel;html=1;align=center;verticalAlign=middle;resizable=0;points=[];" vertex="1" connectable="0" parent="Dr9qmFoqHpHmRpZx1d1R-33">
          <mxGeometry x="0.3512" y="1" relative="1" as="geometry">
            <mxPoint x="10" as="offset" />
          </mxGeometry>
        </mxCell>
        <mxCell id="Dr9qmFoqHpHmRpZx1d1R-35" style="edgeStyle=orthogonalEdgeStyle;orthogonalLoop=1;jettySize=auto;html=1;exitX=0.5;exitY=1;exitDx=0;exitDy=0;entryX=0.5;entryY=0;entryDx=0;entryDy=0;" edge="1" parent="Dr9qmFoqHpHmRpZx1d1R-1" source="Dr9qmFoqHpHmRpZx1d1R-39" target="Dr9qmFoqHpHmRpZx1d1R-40">
          <mxGeometry relative="1" as="geometry" />
        </mxCell>
        <mxCell id="Dr9qmFoqHpHmRpZx1d1R-36" value="Tìm thấy" style="edgeLabel;html=1;align=center;verticalAlign=middle;resizable=0;points=[];" vertex="1" connectable="0" parent="Dr9qmFoqHpHmRpZx1d1R-35">
          <mxGeometry x="0.0267" y="-1" relative="1" as="geometry">
            <mxPoint x="1" y="23" as="offset" />
          </mxGeometry>
        </mxCell>
        <mxCell id="Dr9qmFoqHpHmRpZx1d1R-37" style="edgeStyle=orthogonalEdgeStyle;orthogonalLoop=1;jettySize=auto;html=1;exitX=0.5;exitY=1;exitDx=0;exitDy=0;entryX=0.5;entryY=0;entryDx=0;entryDy=0;" edge="1" parent="Dr9qmFoqHpHmRpZx1d1R-1" source="Dr9qmFoqHpHmRpZx1d1R-39" target="Dr9qmFoqHpHmRpZx1d1R-42">
          <mxGeometry relative="1" as="geometry">
            <Array as="points">
              <mxPoint x="113" y="540" />
              <mxPoint x="220" y="540" />
            </Array>
          </mxGeometry>
        </mxCell>
        <mxCell id="Dr9qmFoqHpHmRpZx1d1R-38" value="Tìm thấy" style="edgeLabel;html=1;align=center;verticalAlign=middle;resizable=0;points=[];" vertex="1" connectable="0" parent="Dr9qmFoqHpHmRpZx1d1R-37">
          <mxGeometry x="-0.0455" y="-1" relative="1" as="geometry">
            <mxPoint x="40" y="44" as="offset" />
          </mxGeometry>
        </mxCell>
        <mxCell id="Dr9qmFoqHpHmRpZx1d1R-39" value="" style="rhombus;whiteSpace=wrap;html=1;" vertex="1" parent="Dr9qmFoqHpHmRpZx1d1R-1">
          <mxGeometry x="102.5" y="470" width="20" height="20" as="geometry" />
        </mxCell>
        <mxCell id="Dr9qmFoqHpHmRpZx1d1R-40" value="Xem chi tiết công việc" style="rounded=0;whiteSpace=wrap;html=1;" vertex="1" parent="Dr9qmFoqHpHmRpZx1d1R-1">
          <mxGeometry x="70" y="630" width="85" height="55" as="geometry" />
        </mxCell>
        <mxCell id="Dr9qmFoqHpHmRpZx1d1R-41" style="edgeStyle=orthogonalEdgeStyle;orthogonalLoop=1;jettySize=auto;html=1;exitX=1;exitY=0.5;exitDx=0;exitDy=0;entryX=0;entryY=0.5;entryDx=0;entryDy=0;" edge="1" parent="Dr9qmFoqHpHmRpZx1d1R-1" source="Dr9qmFoqHpHmRpZx1d1R-42" target="Dr9qmFoqHpHmRpZx1d1R-48">
          <mxGeometry relative="1" as="geometry" />
        </mxCell>
        <mxCell id="Dr9qmFoqHpHmRpZx1d1R-42" value="Xóa công việc" style="rounded=0;whiteSpace=wrap;html=1;" vertex="1" parent="Dr9qmFoqHpHmRpZx1d1R-1">
          <mxGeometry x="177.5" y="630" width="85" height="55" as="geometry" />
        </mxCell>
        <mxCell id="Dr9qmFoqHpHmRpZx1d1R-43" style="edgeStyle=orthogonalEdgeStyle;orthogonalLoop=1;jettySize=auto;html=1;entryX=0;entryY=0.5;entryDx=0;entryDy=0;" edge="1" parent="Dr9qmFoqHpHmRpZx1d1R-1" source="Dr9qmFoqHpHmRpZx1d1R-44" target="Dr9qmFoqHpHmRpZx1d1R-54">
          <mxGeometry relative="1" as="geometry" />
        </mxCell>
        <mxCell id="Dr9qmFoqHpHmRpZx1d1R-44" value="Xác nhận xóa nhân sự" style="rounded=0;whiteSpace=wrap;html=1;" vertex="1" parent="Dr9qmFoqHpHmRpZx1d1R-1">
          <mxGeometry x="177.5" y="730" width="85" height="55" as="geometry" />
        </mxCell>
        <mxCell id="Dr9qmFoqHpHmRpZx1d1R-45" value="Hiển thị giao diện thêm mới" style="rounded=0;whiteSpace=wrap;html=1;" vertex="1" parent="Dr9qmFoqHpHmRpZx1d1R-1">
          <mxGeometry x="537.5" y="370" width="85" height="55" as="geometry" />
        </mxCell>
        <mxCell id="Dr9qmFoqHpHmRpZx1d1R-46" style="edgeStyle=orthogonalEdgeStyle;orthogonalLoop=1;jettySize=auto;html=1;exitX=0.5;exitY=1;exitDx=0;exitDy=0;entryX=0.5;entryY=0;entryDx=0;entryDy=0;" edge="1" parent="Dr9qmFoqHpHmRpZx1d1R-1" source="Dr9qmFoqHpHmRpZx1d1R-47" target="Dr9qmFoqHpHmRpZx1d1R-62">
          <mxGeometry relative="1" as="geometry" />
        </mxCell>
        <mxCell id="Dr9qmFoqHpHmRpZx1d1R-47" value="Nhập thông tin cần thiết" style="rounded=0;whiteSpace=wrap;html=1;" vertex="1" parent="Dr9qmFoqHpHmRpZx1d1R-1">
          <mxGeometry x="287.5" y="480" width="85" height="55" as="geometry" />
        </mxCell>
        <mxCell id="Dr9qmFoqHpHmRpZx1d1R-48" value="Hiển thị thông báo xác nhận xóa" style="rounded=0;whiteSpace=wrap;html=1;" vertex="1" parent="Dr9qmFoqHpHmRpZx1d1R-1">
          <mxGeometry x="537.5" y="630" width="85" height="55" as="geometry" />
        </mxCell>
        <mxCell id="Dr9qmFoqHpHmRpZx1d1R-49" style="edgeStyle=orthogonalEdgeStyle;orthogonalLoop=1;jettySize=auto;html=1;exitX=0.5;exitY=1;exitDx=0;exitDy=0;entryX=0.5;entryY=0;entryDx=0;entryDy=0;" edge="1" parent="Dr9qmFoqHpHmRpZx1d1R-1" source="Dr9qmFoqHpHmRpZx1d1R-51" target="Dr9qmFoqHpHmRpZx1d1R-73">
          <mxGeometry relative="1" as="geometry" />
        </mxCell>
        <mxCell id="Dr9qmFoqHpHmRpZx1d1R-50" value="Đăng xuất" style="edgeLabel;html=1;align=center;verticalAlign=middle;resizable=0;points=[];" vertex="1" connectable="0" parent="Dr9qmFoqHpHmRpZx1d1R-49">
          <mxGeometry x="-0.219" y="1" relative="1" as="geometry">
            <mxPoint x="-1" as="offset" />
          </mxGeometry>
        </mxCell>
        <mxCell id="Dr9qmFoqHpHmRpZx1d1R-51" value="Hiển thị thông tin công việc" style="rounded=0;whiteSpace=wrap;html=1;" vertex="1" parent="Dr9qmFoqHpHmRpZx1d1R-1">
          <mxGeometry x="537.5" y="810" width="85" height="55" as="geometry" />
        </mxCell>
        <mxCell id="Dr9qmFoqHpHmRpZx1d1R-52" value="" style="endArrow=classic;html=1;entryX=0;entryY=0.5;entryDx=0;entryDy=0;exitX=0.5;exitY=1;exitDx=0;exitDy=0;" edge="1" parent="Dr9qmFoqHpHmRpZx1d1R-1" source="Dr9qmFoqHpHmRpZx1d1R-40" target="Dr9qmFoqHpHmRpZx1d1R-51">
          <mxGeometry width="50" height="50" relative="1" as="geometry">
            <mxPoint x="100" y="720" as="sourcePoint" />
            <mxPoint x="410" y="600" as="targetPoint" />
            <Array as="points">
              <mxPoint x="113" y="838" />
            </Array>
          </mxGeometry>
        </mxCell>
        <mxCell id="Dr9qmFoqHpHmRpZx1d1R-53" value="" style="endArrow=classic;html=1;entryX=1;entryY=0.5;entryDx=0;entryDy=0;exitX=0;exitY=1;exitDx=0;exitDy=0;" edge="1" parent="Dr9qmFoqHpHmRpZx1d1R-1" source="Dr9qmFoqHpHmRpZx1d1R-48" target="Dr9qmFoqHpHmRpZx1d1R-44">
          <mxGeometry width="50" height="50" relative="1" as="geometry">
            <mxPoint x="360" y="650" as="sourcePoint" />
            <mxPoint x="410" y="600" as="targetPoint" />
          </mxGeometry>
        </mxCell>
        <mxCell id="Dr9qmFoqHpHmRpZx1d1R-54" value="Xóa khỏi hệ thống" style="rounded=0;whiteSpace=wrap;html=1;" vertex="1" parent="Dr9qmFoqHpHmRpZx1d1R-1">
          <mxGeometry x="537.5" y="730" width="85" height="55" as="geometry" />
        </mxCell>
        <mxCell id="Dr9qmFoqHpHmRpZx1d1R-55" value="" style="endArrow=classic;html=1;exitX=1;exitY=0.5;exitDx=0;exitDy=0;entryX=1;entryY=0.5;entryDx=0;entryDy=0;" edge="1" parent="Dr9qmFoqHpHmRpZx1d1R-1" source="Dr9qmFoqHpHmRpZx1d1R-54" target="Dr9qmFoqHpHmRpZx1d1R-12">
          <mxGeometry width="50" height="50" relative="1" as="geometry">
            <mxPoint x="360" y="580" as="sourcePoint" />
            <mxPoint x="410" y="530" as="targetPoint" />
            <Array as="points">
              <mxPoint x="690" y="758" />
              <mxPoint x="690" y="218" />
            </Array>
          </mxGeometry>
        </mxCell>
        <mxCell id="Dr9qmFoqHpHmRpZx1d1R-56" style="edgeStyle=orthogonalEdgeStyle;orthogonalLoop=1;jettySize=auto;html=1;exitX=0.5;exitY=1;exitDx=0;exitDy=0;entryX=0.5;entryY=0;entryDx=0;entryDy=0;" edge="1" parent="Dr9qmFoqHpHmRpZx1d1R-1" source="Dr9qmFoqHpHmRpZx1d1R-60" target="Dr9qmFoqHpHmRpZx1d1R-47">
          <mxGeometry relative="1" as="geometry" />
        </mxCell>
        <mxCell id="Dr9qmFoqHpHmRpZx1d1R-57" value="Không" style="edgeLabel;html=1;align=center;verticalAlign=middle;resizable=0;points=[];" vertex="1" connectable="0" parent="Dr9qmFoqHpHmRpZx1d1R-56">
          <mxGeometry x="-0.2444" y="-1" relative="1" as="geometry">
            <mxPoint x="-19" y="-6" as="offset" />
          </mxGeometry>
        </mxCell>
        <mxCell id="Dr9qmFoqHpHmRpZx1d1R-58" style="edgeStyle=orthogonalEdgeStyle;orthogonalLoop=1;jettySize=auto;html=1;exitX=1;exitY=0.5;exitDx=0;exitDy=0;entryX=0;entryY=0.5;entryDx=0;entryDy=0;" edge="1" parent="Dr9qmFoqHpHmRpZx1d1R-1" source="Dr9qmFoqHpHmRpZx1d1R-60" target="Dr9qmFoqHpHmRpZx1d1R-66">
          <mxGeometry relative="1" as="geometry" />
        </mxCell>
        <mxCell id="Dr9qmFoqHpHmRpZx1d1R-59" value="Có" style="edgeLabel;html=1;align=center;verticalAlign=middle;resizable=0;points=[];" vertex="1" connectable="0" parent="Dr9qmFoqHpHmRpZx1d1R-58">
          <mxGeometry x="-0.3544" y="-1" relative="1" as="geometry">
            <mxPoint y="-2" as="offset" />
          </mxGeometry>
        </mxCell>
        <mxCell id="Dr9qmFoqHpHmRpZx1d1R-60" value="" style="rhombus;whiteSpace=wrap;html=1;" vertex="1" parent="Dr9qmFoqHpHmRpZx1d1R-1">
          <mxGeometry x="320" y="440" width="20" height="20" as="geometry" />
        </mxCell>
        <mxCell id="Dr9qmFoqHpHmRpZx1d1R-61" style="edgeStyle=orthogonalEdgeStyle;orthogonalLoop=1;jettySize=auto;html=1;exitX=1;exitY=0.5;exitDx=0;exitDy=0;entryX=0;entryY=0.5;entryDx=0;entryDy=0;" edge="1" parent="Dr9qmFoqHpHmRpZx1d1R-1" source="Dr9qmFoqHpHmRpZx1d1R-62" target="Dr9qmFoqHpHmRpZx1d1R-68">
          <mxGeometry relative="1" as="geometry" />
        </mxCell>
        <mxCell id="Dr9qmFoqHpHmRpZx1d1R-62" value="Xác nhận &lt;br&gt;thêm mới" style="rounded=0;whiteSpace=wrap;html=1;" vertex="1" parent="Dr9qmFoqHpHmRpZx1d1R-1">
          <mxGeometry x="287.5" y="557" width="85" height="55" as="geometry" />
        </mxCell>
        <mxCell id="Dr9qmFoqHpHmRpZx1d1R-63" value="" style="endArrow=classic;html=1;entryX=0.5;entryY=0;entryDx=0;entryDy=0;exitX=0;exitY=1;exitDx=0;exitDy=0;" edge="1" parent="Dr9qmFoqHpHmRpZx1d1R-1" source="Dr9qmFoqHpHmRpZx1d1R-45" target="Dr9qmFoqHpHmRpZx1d1R-60">
          <mxGeometry width="50" height="50" relative="1" as="geometry">
            <mxPoint x="360" y="460" as="sourcePoint" />
            <mxPoint x="410" y="410" as="targetPoint" />
          </mxGeometry>
        </mxCell>
        <mxCell id="Dr9qmFoqHpHmRpZx1d1R-64" value="Đăng xuất" style="edgeLabel;html=1;align=center;verticalAlign=middle;resizable=0;points=[];" vertex="1" connectable="0" parent="Dr9qmFoqHpHmRpZx1d1R-63">
          <mxGeometry x="-0.3361" y="1" relative="1" as="geometry">
            <mxPoint as="offset" />
          </mxGeometry>
        </mxCell>
        <mxCell id="Dr9qmFoqHpHmRpZx1d1R-65" style="edgeStyle=orthogonalEdgeStyle;orthogonalLoop=1;jettySize=auto;html=1;exitX=0.5;exitY=1;exitDx=0;exitDy=0;entryX=1;entryY=0.5;entryDx=0;entryDy=0;" edge="1" parent="Dr9qmFoqHpHmRpZx1d1R-1" source="Dr9qmFoqHpHmRpZx1d1R-66" target="Dr9qmFoqHpHmRpZx1d1R-75">
          <mxGeometry relative="1" as="geometry" />
        </mxCell>
        <mxCell id="Dr9qmFoqHpHmRpZx1d1R-66" value="" style="rhombus;whiteSpace=wrap;html=1;" vertex="1" parent="Dr9qmFoqHpHmRpZx1d1R-1">
          <mxGeometry x="720" y="440" width="20" height="20" as="geometry" />
        </mxCell>
        <mxCell id="Dr9qmFoqHpHmRpZx1d1R-67" style="edgeStyle=orthogonalEdgeStyle;orthogonalLoop=1;jettySize=auto;html=1;exitX=1;exitY=0.5;exitDx=0;exitDy=0;entryX=1;entryY=0.25;entryDx=0;entryDy=0;" edge="1" parent="Dr9qmFoqHpHmRpZx1d1R-1" source="Dr9qmFoqHpHmRpZx1d1R-68" target="Dr9qmFoqHpHmRpZx1d1R-51">
          <mxGeometry relative="1" as="geometry">
            <Array as="points">
              <mxPoint x="660" y="585" />
              <mxPoint x="660" y="824" />
            </Array>
          </mxGeometry>
        </mxCell>
        <mxCell id="Dr9qmFoqHpHmRpZx1d1R-68" value="Kiểm tra thông tin và lưu vào hệ thống" style="rounded=0;whiteSpace=wrap;html=1;" vertex="1" parent="Dr9qmFoqHpHmRpZx1d1R-1">
          <mxGeometry x="537.5" y="557" width="85" height="55" as="geometry" />
        </mxCell>
        <mxCell id="Dr9qmFoqHpHmRpZx1d1R-69" style="edgeStyle=orthogonalEdgeStyle;orthogonalLoop=1;jettySize=auto;html=1;exitX=0.5;exitY=1;exitDx=0;exitDy=0;entryX=0.5;entryY=0;entryDx=0;entryDy=0;" edge="1" parent="Dr9qmFoqHpHmRpZx1d1R-1" source="Dr9qmFoqHpHmRpZx1d1R-73" target="Dr9qmFoqHpHmRpZx1d1R-75">
          <mxGeometry relative="1" as="geometry" />
        </mxCell>
        <mxCell id="Dr9qmFoqHpHmRpZx1d1R-70" value="Có" style="edgeLabel;html=1;align=center;verticalAlign=middle;resizable=0;points=[];" vertex="1" connectable="0" parent="Dr9qmFoqHpHmRpZx1d1R-69">
          <mxGeometry x="0.2103" relative="1" as="geometry">
            <mxPoint x="-1" y="-124" as="offset" />
          </mxGeometry>
        </mxCell>
        <mxCell id="Dr9qmFoqHpHmRpZx1d1R-71" style="edgeStyle=orthogonalEdgeStyle;orthogonalLoop=1;jettySize=auto;html=1;exitX=0;exitY=0.5;exitDx=0;exitDy=0;entryX=1;entryY=0.5;entryDx=0;entryDy=0;" edge="1" parent="Dr9qmFoqHpHmRpZx1d1R-1" source="Dr9qmFoqHpHmRpZx1d1R-73" target="Dr9qmFoqHpHmRpZx1d1R-76">
          <mxGeometry relative="1" as="geometry" />
        </mxCell>
        <mxCell id="Dr9qmFoqHpHmRpZx1d1R-72" value="Không" style="edgeLabel;html=1;align=center;verticalAlign=middle;resizable=0;points=[];" vertex="1" connectable="0" parent="Dr9qmFoqHpHmRpZx1d1R-71">
          <mxGeometry x="-0.2" y="1" relative="1" as="geometry">
            <mxPoint y="-1" as="offset" />
          </mxGeometry>
        </mxCell>
        <mxCell id="Dr9qmFoqHpHmRpZx1d1R-73" value="" style="rhombus;whiteSpace=wrap;html=1;" vertex="1" parent="Dr9qmFoqHpHmRpZx1d1R-1">
          <mxGeometry x="570" y="927.5" width="20" height="20" as="geometry" />
        </mxCell>
        <mxCell id="Dr9qmFoqHpHmRpZx1d1R-74" style="edgeStyle=orthogonalEdgeStyle;orthogonalLoop=1;jettySize=auto;html=1;exitX=0;exitY=0.5;exitDx=0;exitDy=0;entryX=1;entryY=0.5;entryDx=0;entryDy=0;" edge="1" parent="Dr9qmFoqHpHmRpZx1d1R-1" source="Dr9qmFoqHpHmRpZx1d1R-75" target="Dr9qmFoqHpHmRpZx1d1R-22">
          <mxGeometry relative="1" as="geometry" />
        </mxCell>
        <mxCell id="Dr9qmFoqHpHmRpZx1d1R-75" value="" style="rhombus;whiteSpace=wrap;html=1;" vertex="1" parent="Dr9qmFoqHpHmRpZx1d1R-1">
          <mxGeometry x="570" y="1215" width="20" height="20" as="geometry" />
        </mxCell>
        <mxCell id="Dr9qmFoqHpHmRpZx1d1R-76" value="Cập nhật thông tin công việc" style="rounded=0;whiteSpace=wrap;html=1;" vertex="1" parent="Dr9qmFoqHpHmRpZx1d1R-1">
          <mxGeometry x="280" y="910" width="85" height="55" as="geometry" />
        </mxCell>
        <mxCell id="Dr9qmFoqHpHmRpZx1d1R-77" style="edgeStyle=orthogonalEdgeStyle;orthogonalLoop=1;jettySize=auto;html=1;exitX=0.5;exitY=1;exitDx=0;exitDy=0;entryX=0.5;entryY=0;entryDx=0;entryDy=0;" edge="1" parent="Dr9qmFoqHpHmRpZx1d1R-1" source="Dr9qmFoqHpHmRpZx1d1R-78" target="Dr9qmFoqHpHmRpZx1d1R-80">
          <mxGeometry relative="1" as="geometry" />
        </mxCell>
        <mxCell id="Dr9qmFoqHpHmRpZx1d1R-78" value="Nhập thông tin cần sửa" style="rounded=0;whiteSpace=wrap;html=1;" vertex="1" parent="Dr9qmFoqHpHmRpZx1d1R-1">
          <mxGeometry x="280" y="1010" width="85" height="55" as="geometry" />
        </mxCell>
        <mxCell id="Dr9qmFoqHpHmRpZx1d1R-79" style="edgeStyle=orthogonalEdgeStyle;orthogonalLoop=1;jettySize=auto;html=1;exitX=1;exitY=0.5;exitDx=0;exitDy=0;entryX=0;entryY=0.5;entryDx=0;entryDy=0;" edge="1" parent="Dr9qmFoqHpHmRpZx1d1R-1" source="Dr9qmFoqHpHmRpZx1d1R-80" target="Dr9qmFoqHpHmRpZx1d1R-84">
          <mxGeometry relative="1" as="geometry" />
        </mxCell>
        <mxCell id="Dr9qmFoqHpHmRpZx1d1R-80" value="Xác nhận sửa" style="rounded=0;whiteSpace=wrap;html=1;" vertex="1" parent="Dr9qmFoqHpHmRpZx1d1R-1">
          <mxGeometry x="280" y="1114" width="85" height="55" as="geometry" />
        </mxCell>
        <mxCell id="Dr9qmFoqHpHmRpZx1d1R-81" style="edgeStyle=orthogonalEdgeStyle;orthogonalLoop=1;jettySize=auto;html=1;exitX=0;exitY=0.5;exitDx=0;exitDy=0;entryX=1;entryY=0.5;entryDx=0;entryDy=0;" edge="1" parent="Dr9qmFoqHpHmRpZx1d1R-1" source="Dr9qmFoqHpHmRpZx1d1R-82" target="Dr9qmFoqHpHmRpZx1d1R-78">
          <mxGeometry relative="1" as="geometry" />
        </mxCell>
        <mxCell id="Dr9qmFoqHpHmRpZx1d1R-82" value="Hiển thị giao diện thêm cập nhật" style="rounded=0;whiteSpace=wrap;html=1;" vertex="1" parent="Dr9qmFoqHpHmRpZx1d1R-1">
          <mxGeometry x="440" y="1010" width="85" height="55" as="geometry" />
        </mxCell>
        <mxCell id="Dr9qmFoqHpHmRpZx1d1R-83" style="edgeStyle=orthogonalEdgeStyle;orthogonalLoop=1;jettySize=auto;html=1;exitX=1;exitY=0.5;exitDx=0;exitDy=0;entryX=1;entryY=0.5;entryDx=0;entryDy=0;" edge="1" parent="Dr9qmFoqHpHmRpZx1d1R-1" source="Dr9qmFoqHpHmRpZx1d1R-84" target="Dr9qmFoqHpHmRpZx1d1R-51">
          <mxGeometry relative="1" as="geometry">
            <Array as="points">
              <mxPoint x="660" y="1142" />
              <mxPoint x="660" y="838" />
            </Array>
          </mxGeometry>
        </mxCell>
        <mxCell id="Dr9qmFoqHpHmRpZx1d1R-84" value="Lưu thông tin" style="rounded=0;whiteSpace=wrap;html=1;" vertex="1" parent="Dr9qmFoqHpHmRpZx1d1R-1">
          <mxGeometry x="440" y="1114" width="85" height="55" as="geometry" />
        </mxCell>
        <mxCell id="Dr9qmFoqHpHmRpZx1d1R-85" value="" style="endArrow=classic;html=1;exitX=1;exitY=1;exitDx=0;exitDy=0;entryX=0;entryY=0;entryDx=0;entryDy=0;" edge="1" parent="Dr9qmFoqHpHmRpZx1d1R-1" source="Dr9qmFoqHpHmRpZx1d1R-76" target="Dr9qmFoqHpHmRpZx1d1R-82">
          <mxGeometry width="50" height="50" relative="1" as="geometry">
            <mxPoint x="360" y="940" as="sourcePoint" />
            <mxPoint x="410" y="890" as="targetPoint" />
          </mxGeometry>
        </mxCell>
      </root>
    </mxGraphModel>
  </diagram>
</mxfile>
